<?xml version="1.0" encoding="UTF-8" standalone="no"?>
<svg
   xmlns:dc="http://purl.org/dc/elements/1.1/"
   xmlns:cc="http://creativecommons.org/ns#"
   xmlns:rdf="http://www.w3.org/1999/02/22-rdf-syntax-ns#"
   xmlns:svg="http://www.w3.org/2000/svg"
   xmlns="http://www.w3.org/2000/svg"
   xml:space="preserve"
   enable-background="new 0 0 64 64"
   viewBox="0 0 64 64"
   height="64px"
   width="64px"
   y="0px"
   x="0px"
   id="Layer_1"
   version="1.1"><metadata
     id="metadata5082"><rdf:RDF><cc:Work
         rdf:about=""><dc:format>image/svg+xml</dc:format><dc:type
           rdf:resource="http://purl.org/dc/dcmitype/StillImage" /><dc:title></dc:title></cc:Work></rdf:RDF></metadata><defs
     id="defs5080" /><g
     style="fill:#bebebe;fill-opacity:1"
     enable-background="new    "
     id="CIRCLE__x2F__OK_1_"><g
       style="fill:#bebebe;fill-opacity:1"
       id="CIRCLE__x2F__OK"><g
         style="fill:#bebebe;fill-opacity:1"
         id="g5073"><path
           style="fill:#bebebe;fill-opacity:1"
           id="path5071"
           d="M46,43.001L46,43.001C46,43,46,43,46,42.999V43.001z M46,20.999v0.002C46,21.001,46,21,46,20.999C46,21,46,21,46,20.999z      M44,21c-0.828,0-1.578,0.336-2.121,0.879L28,35.758l-6.879-6.879C20.578,28.336,19.828,28,19,28c-1.657,0-3,1.343-3,3     c0,0.828,0.336,1.578,0.879,2.121l9,9C26.422,42.664,27.172,43,28,43s1.578-0.336,2.121-0.879l16-16     C46.664,25.579,47,24.828,47,24C47,22.343,45.657,21,44,21z M32,0C14.327,0,0,14.327,0,32s14.327,32,32,32s32-14.327,32-32     S49.673,0,32,0z M32,58C17.641,58,6,46.359,6,32C6,17.64,17.641,6,32,6c14.359,0,26,11.64,26,26C58,46.359,46.359,58,32,58z" /></g></g></g></svg>