<?xml version="1.0" encoding="UTF-8" standalone="no"?>
<!-- Generated by IcoMoon.io -->

<svg
   xmlns:dc="http://purl.org/dc/elements/1.1/"
   xmlns:cc="http://creativecommons.org/ns#"
   xmlns:rdf="http://www.w3.org/1999/02/22-rdf-syntax-ns#"
   xmlns:svg="http://www.w3.org/2000/svg"
   xmlns="http://www.w3.org/2000/svg"
   xmlns:sodipodi="http://sodipodi.sourceforge.net/DTD/sodipodi-0.dtd"
   xmlns:inkscape="http://www.inkscape.org/namespaces/inkscape"
   version="1.1"
   width="32"
   height="32"
   viewBox="0 0 32 32"
   id="svg4489"
   sodipodi:docname="trashcan-light.svg"
   inkscape:version="0.92.1 r15371">
  <metadata
     id="metadata4495">
    <rdf:RDF>
      <cc:Work
         rdf:about="">
        <dc:format>image/svg+xml</dc:format>
        <dc:type
           rdf:resource="http://purl.org/dc/dcmitype/StillImage" />
        <dc:title>trashcan</dc:title>
      </cc:Work>
    </rdf:RDF>
  </metadata>
  <defs
     id="defs4493" />
  <sodipodi:namedview
     pagecolor="#ffffff"
     bordercolor="#666666"
     borderopacity="1"
     objecttolerance="10"
     gridtolerance="10"
     guidetolerance="10"
     inkscape:pageopacity="0"
     inkscape:pageshadow="2"
     inkscape:window-width="1920"
     inkscape:window-height="1057"
     id="namedview4491"
     showgrid="false"
     inkscape:zoom="28.28125"
     inkscape:cx="16"
     inkscape:cy="15.681768"
     inkscape:window-x="-8"
     inkscape:window-y="-8"
     inkscape:window-maximized="1"
     inkscape:current-layer="svg4489" />
  <title
     id="title4485">trashcan</title>
  <path
     d="M21 28c0.553 0 1-0.447 1-1v-14c0-0.553-0.447-1-1-1s-1 0.447-1 1v14c0 0.553 0.447 1 1 1zM11 28c0.552 0 1-0.447 1-1v-14c0-0.553-0.448-1-1-1s-1 0.447-1 1v14c0 0.553 0.448 1 1 1zM29 6h-4v-2c0-2.209-1.791-4-4-4h-10c-2.209 0-4 1.791-4 4v2h-4l-3 3c0 0.553 0.448 1 1 1h3v20c0 1.104 0.896 2 2 2h20c1.104 0 2-0.896 2-2v-20h3c0.553 0 1-0.447 1-1l-3-3zM10 4c0-1.104 0.896-2 2-2h8c1.104 0 2 0.896 2 2v2h-12v-2zM26 29c0 0.553-0.447 1-1 1h-18c-0.552 0-1-0.447-1-1v-19h20v19zM16 28c0.553 0 1-0.447 1-1v-14c0-0.553-0.447-1-1-1s-1 0.447-1 1v14c0 0.553 0.447 1 1 1z"
     id="path4487"
     style="fill:#dedede;fill-opacity:1" />
  <path
     style="opacity:1;vector-effect:none;fill:none;fill-opacity:1;stroke:#000000;stroke-width:0.07071823px;stroke-linecap:butt;stroke-linejoin:round;stroke-miterlimit:4;stroke-dasharray:none;stroke-dashoffset:0;stroke-opacity:1"
     d="M 5.6751381,31.958087 C 4.902144,31.827283 4.229103,31.179016 4.0666845,30.40884 4.0213703,30.193963 4.0144067,28.831364 4.0138735,20.075138 L 4.0132597,9.9889503 2.4839779,9.9885613 C 1.6428729,9.9883492 0.89473938,9.978263 0.82145888,9.9661514 0.63146014,9.9347493 0.34022743,9.7488778 0.20748032,9.574296 0.14126755,9.4872164 0.07535978,9.3422823 0.04957107,9.2270462 L 0.00530791,9.0292572 1.5052604,7.5289932 3.0052129,6.0287293 H 5.0119988 7.0187845 V 4.8504299 c 0,-1.3077308 0.030398,-1.6047701 0.219561,-2.1454575 C 7.6342952,1.5732236 8.5253025,0.66447441 9.6314399,0.26422705 10.298794,0.02275021 9.8377261,0.04047041 15.805525,0.02693871 c 3.749589,-0.008502 5.499808,-5.0463e-4 5.702746,0.02605789 0.870931,0.11399593 1.674276,0.51115025 2.300377,1.1372506 0.593383,0.5933837 0.97442,1.3273939 1.115362,2.1485803 0.04489,0.2615409 0.0572,0.5869969 0.0572,1.5116024 v 1.1782994 h 2.006786 2.006786 l 1.493767,1.4940768 c 0.821572,0.8217423 1.493766,1.5189647 1.493766,1.5493834 0,0.1422494 -0.116737,0.4214581 -0.233003,0.557288 -0.07069,0.08258 -0.21027,0.1932662 -0.310189,0.2459693 l -0.181669,0.095824 -1.63536,0.010485 -1.635359,0.010484 -6.15e-4,10.0845432 c -6.75e-4,11.08248 0.01414,10.336944 -0.214646,10.802834 -0.128298,0.261264 -0.455531,0.62498 -0.708114,0.787062 -0.09779,0.06275 -0.284069,0.155464 -0.413953,0.206028 l -0.236152,0.09193 -10.324862,0.0042 c -5.678674,0.0023 -10.3646411,-0.0025 -10.4132599,-0.01076 z M 25.405525,29.92878 c 0.193622,-0.08746 0.403839,-0.284314 0.506863,-0.474636 l 0.07656,-0.141437 0.0091,-9.661878 0.0091,-9.6618787 H 16 5.9928645 l 0.00909,9.6618787 0.00909,9.661878 0.076562,0.141437 c 0.103024,0.190322 0.3132414,0.387173 0.5068633,0.474636 0.158667,0.07167 0.1852132,0.07188 9.4055252,0.07188 9.220312,0 9.246858,-2.12e-4 9.405525,-0.07188 z M 22.01105,4.8989779 c 0,-0.6772465 -0.01544,-1.2048017 -0.03854,-1.317127 C 21.825479,2.8670928 21.21808,2.234421 20.503036,2.0512353 20.186799,1.9702193 11.804769,1.9707753 11.493567,2.0518327 10.778086,2.2381918 10.174274,2.8683427 10.0275,3.5818509 10.00439,3.6941762 9.988955,4.2217314 9.988955,4.8989779 V 6.0287293 H 16 22.01105 Z"
     id="path4497"
     inkscape:connector-curvature="0" />
</svg>
