<!-- Generated by IcoMoon.io -->
<svg version="1.1" xmlns="http://www.w3.org/2000/svg" width="32" height="32" viewBox="0 0 32 32">
<title>trashcan</title>
<path d="M21 28c0.553 0 1-0.447 1-1v-14c0-0.553-0.447-1-1-1s-1 0.447-1 1v14c0 0.553 0.447 1 1 1zM11 28c0.552 0 1-0.447 1-1v-14c0-0.553-0.448-1-1-1s-1 0.447-1 1v14c0 0.553 0.448 1 1 1zM29 6h-4v-2c0-2.209-1.791-4-4-4h-10c-2.209 0-4 1.791-4 4v2h-4l-3 3c0 0.553 0.448 1 1 1h3v20c0 1.104 0.896 2 2 2h20c1.104 0 2-0.896 2-2v-20h3c0.553 0 1-0.447 1-1l-3-3zM10 4c0-1.104 0.896-2 2-2h8c1.104 0 2 0.896 2 2v2h-12v-2zM26 29c0 0.553-0.447 1-1 1h-18c-0.552 0-1-0.447-1-1v-19h20v19zM16 28c0.553 0 1-0.447 1-1v-14c0-0.553-0.447-1-1-1s-1 0.447-1 1v14c0 0.553 0.447 1 1 1z"></path>
</svg>
